<svg id="instagram" xmlns="http://www.w3.org/2000/svg" width="14.999" height="15" viewBox="0 0 14.999 15">
  <path id="instagram_icon" data-name="instagram icon" d="M4.408,14.955a5.508,5.508,0,0,1-1.82-.348,3.688,3.688,0,0,1-1.328-.865,3.666,3.666,0,0,1-.865-1.329,5.5,5.5,0,0,1-.348-1.82C.008,9.793,0,9.537,0,7.5S.008,5.208.045,4.409a5.5,5.5,0,0,1,.348-1.82,3.67,3.67,0,0,1,.866-1.329A3.68,3.68,0,0,1,2.588.394,5.5,5.5,0,0,1,4.408.045C5.208.008,5.464,0,7.5,0s2.292.009,3.092.045a5.494,5.494,0,0,1,1.82.348,3.671,3.671,0,0,1,1.328.865,3.688,3.688,0,0,1,.865,1.328,5.5,5.5,0,0,1,.348,1.82c.036.8.045,1.055.045,3.092s-.008,2.292-.045,3.092a5.485,5.485,0,0,1-.348,1.82,3.836,3.836,0,0,1-2.194,2.194,5.5,5.5,0,0,1-1.82.348c-.8.036-1.055.045-3.092.045S5.208,14.991,4.408,14.955ZM1.654,3.077A4.174,4.174,0,0,0,1.4,4.47C1.36,5.26,1.352,5.5,1.352,7.5s.007,2.24.044,3.03a4.141,4.141,0,0,0,.258,1.393,2.314,2.314,0,0,0,.561.862,2.331,2.331,0,0,0,.863.561A4.145,4.145,0,0,0,4.47,13.6c.791.036,1.028.044,3.03.044s2.241-.007,3.03-.044a4.139,4.139,0,0,0,1.393-.258,2.48,2.48,0,0,0,1.423-1.422,4.158,4.158,0,0,0,.258-1.393c.036-.791.044-1.028.044-3.03s-.007-2.239-.044-3.03a4.141,4.141,0,0,0-.258-1.393,2.323,2.323,0,0,0-.561-.863,2.325,2.325,0,0,0-.863-.561A4.17,4.17,0,0,0,10.53,1.4C9.74,1.361,9.5,1.353,7.5,1.353S5.259,1.36,4.47,1.4a4.14,4.14,0,0,0-1.393.258,2.311,2.311,0,0,0-.863.561,2.325,2.325,0,0,0-.56.862ZM3.649,7.5h0A3.851,3.851,0,1,1,7.5,11.351,3.837,3.837,0,0,1,3.649,7.5ZM5,7.5A2.5,2.5,0,1,0,5.5,6,2.5,2.5,0,0,0,5,7.5Zm6.5-3.1a.9.9,0,0,1-.9-.9h0a.9.9,0,1,1,.9.9Z" transform="translate(0)" fill="#707070"/>
</svg>
