<svg id="baseline-call-24px" xmlns="http://www.w3.org/2000/svg" width="18.83" height="18.83" viewBox="0 0 18.83 18.83">
  <path id="Path_781" data-name="Path 781" d="M0,0H18.83V18.83H0Z" fill="none"/>
  <path id="Path_782" data-name="Path 782" d="M16.581,12.885a9.136,9.136,0,0,1-2.818-.447.78.78,0,0,0-.806.192L11.7,14.2A12.123,12.123,0,0,1,6.2,8.749L7.759,7.423a.815.815,0,0,0,.192-.814A8.9,8.9,0,0,1,7.5,3.79.8.8,0,0,0,6.713,3H3.95C3.519,3,3,3.192,3,3.79A13.7,13.7,0,0,0,16.581,17.372a.838.838,0,0,0,.79-.942V13.675a.8.8,0,0,0-.79-.79Z" transform="translate(-0.771 -0.771)" fill="#707070"/>
</svg>
