<svg xmlns="http://www.w3.org/2000/svg" width="1062.145" height="1164.5" viewBox="0 0 1062.145 1164.5">
  <g id="Group_881" data-name="Group 881" transform="translate(85.83 35.713)">
    <path id="Path_3491" data-name="Path 3491" d="M973.894,440.122c-13.653-8.389-35.329-10.387-56.47-8.98,33.781-11.176,57.258-36.511,58.891-58.891-18.439-5.18-36.961-2.646-53.2,1.1,17.172-12.386,44.281-34.681,41.1-67.42-16.1-3.772-45.632,7.094-58.581,12.358,40.2-22.014,54.471-73.416,33.3-102.946-12.3,7.066-69,64.183-78.117,70.461,28.91-32.88,42.7-56.273,50.868-78.6,8.783-24.294,9.8-66.294-20.494-80.707C877,158.956,826.5,242,798.123,276.2c-2.618-2.421-5.18-5.855-8.783-6.728-6.925,21.225-27.081,49.179-44.956,62.213-.873-1.8-2.308-6.812-5.883-11.345-19.086,28.263-68.743,66.632-84.817,90.025-12.189,17.763-12.7,34.034,4.729,50.5,7.009,6.5,20.55,19.058,8.924,35.779-18.776,26.884-60.523,25.9-72.656,2.731,26.546-2.956,34.681-35.132,17.96-53.739-6.981,12.527-22.154,18.185-37.581,11.992-9.6-3.913-17.087-9.121-21.225-13.625,21.366,7.122,40.114-5.6,37.609-27.306-17.256,14.695-34.991.563-38.453-3.265-11.2-12.442-14.16-26.687-9.74-48.165,3.885-18.748,23.28-48.531,36.624-58.5,1.492,2.168,4.532,5.912,10.669,4.757,4.138-.76,10.556-4.307,14.779-5.63a43.157,43.157,0,0,1,33.978,4.138c14.948,9.008,13.653,18.692,13.4,26.349,22.886-12.949,14.638-33.555-14.92-41.719,20.55.31,36.99,18.1,41.1,20.916,11.176,7.516,27.334,5.912,36.764,1.548,17.932-8.3,22.155-28.939,17.144-33.7-1.858,7.4-7.91,14.047-17.988,15.258-15.68,1.83-30.656-4.7-42.423-9.627-9.74-4.11-26.067-7.066-37.271-6.362,20.24-11.345,52.191-10.05,63.395,7.094,6.559-5.461,11.035-10.331,13.118-21.676,5.236-29.474-17.9-44.9-43.324-44.9.225-7.15-4.842-10.669-11.457-8.867a6.213,6.213,0,0,0-3.716-6.193c.9-.084,2.027-.141,2.843-.225,25.448-1.971,50.08-9.993,62.944-23.252,23-23.759-13.4-54.415-.394-78.286,12.161,5.94,21.507,12.414,39.157,15.089,1.52,3.35,2.984,10.7,3.688,14.244,5.574,27.081-21.338,31.275-14.723,60.129,3.04,12.977,13.174,16.918,16.412,32.2.253,0,1.52,11.288-8.276,20.409,22.211.2,33.7-17.707,26.6-34.963-2.759-6.841-10.472-13.653-10.162-21.62,11.091,15.145,21.056,14.019,38.341,8.839,7.91-2.308,8.642,8.445,4,16.862,11.711-6.5,14.948-18.044,14.779-23.309-.169-11.908-9.346-17.313-18.41-15.286-5.321,1.154-15.933,7.685-16.693-2.337-1.351-17,25.476-16.018,19.79-43.69-2.843-14.357-18.495-21.282-42.479-24.632a60.455,60.455,0,0,1-11.626-12.808c-14.075-22.183-27.841-27.672-35.92-23.28-9.712,5.349-14.469,9.459-22.83,13.681-6.137,3.04-13.2,4.645-17.2,9.6-10.388,13.006-.9,32.992,5.011,45.238,3.519,7.291,12.3,24.04,8.614,35.807-4.5,14.582-29.108,23.759-44.084,27.081-.732.169-1.8.282-2.674.45v-5.658a167.036,167.036,0,0,0,11.457-24.969c9.853-26.124-4.926-37.243-27.531-41.972-2.59-1.8-5.63-2.308-9.515-1.126l-.591.169-.535,3.885-2.956-.422.281-5.349-.732.113a11.139,11.139,0,0,0,.816-15.4h3.519l-1.295-1.408c-.816-.957-2.308-2.534-3.575-4.138a16.552,16.552,0,0,1-1.717-2.365c.76.45,1.577,1.013,2.506,1.661,1.576,1.295,3.1,2.674,4.138,3.519l1.407,1.239V87.453l-1.407,1.21c-1.042.873-2.562,2.252-4.138,3.547A28.356,28.356,0,0,1,617.4,93.9a23.485,23.485,0,0,1,1.774-2.365c1.267-1.633,2.674-3.181,3.575-4.166l1.295-1.407H599.071l1.295,1.407c.873.985,2.393,2.534,3.631,4.166a28.06,28.06,0,0,1,1.745,2.365,16.126,16.126,0,0,1-2.477-1.689c-1.633-1.239-3.237-2.674-4.194-3.491l-1.436-1.267v24.519l1.436-1.323c.957-.845,2.562-2.224,4.194-3.519a18.126,18.126,0,0,1,2.477-1.661c-.478.732-1.1,1.576-1.745,2.393-1.239,1.576-2.7,3.1-3.575,4.11l-1.351,1.408h3.491a11.444,11.444,0,0,0-2.59,7.263,11.047,11.047,0,0,0,3.462,8.135l-.563-.113.282,5.349-3.012.422-.507-3.885-.563-.169c-3.885-1.182-6.9-.676-9.515,1.126-22.548,4.729-37.327,15.849-27.5,41.972a174.4,174.4,0,0,0,11.429,25l.028,3.491c-22.211-6.925-63-31.022-73.642-45.885-1.435-1.773-2.393-2.843-3.153-3.631l.169-15.961c8.248-12.611,15.286-28.882,20.691-43.042,14.328-37.862-6.869-53.88-40.143-60.833-3.6-2.505-7.826-3.266-13.343-1.6l-.845,6.193-6.869-.985.45-7.46c-1.407.141-2.7.253-3.913.366a15.829,15.829,0,0,0,8.3-13.794,15.373,15.373,0,0,0-5.771-12.077h5.4c-2.646-2.928-8.614-9.177-9.4-12.977,3.828.873,10.19,6.672,13.146,9.261v-30.8C461.64-28.639,455.278-22.84,451.45-22c.788-3.772,6.756-10.078,9.43-12.977H429.52c2.618,2.9,8.53,9.233,9.43,12.977-3.8-.844-10.247-6.643-13.146-9.29V-.461c2.9-2.59,9.346-8.389,13.146-9.261-.9,3.772-6.84,10.078-9.43,12.977H434.9a15.635,15.635,0,0,0-5.771,12.077,15.741,15.741,0,0,0,8.389,13.794c-1.3-.113-2.646-.225-4.138-.366l.45,7.46-6.953.985-.845-6.193c-5.489-1.661-9.768-.9-13.287,1.6-33.3,6.953-54.443,22.971-40.171,60.833,5.376,14.16,12.414,30.431,20.719,43.042l.169,16.243c-.732.76-1.633,1.8-2.871,3.35-10.641,14.863-51.459,38.96-73.7,45.885l.028-3.491a174.586,174.586,0,0,0,11.457-25c9.909-26.124-4.926-37.243-27.475-41.972-2.618-1.8-5.658-2.308-9.543-1.126l-.535.169-.535,3.885-3.012-.422.31-5.349-.507.113a11.24,11.24,0,0,0,3.434-8.135,11.059,11.059,0,0,0-2.674-7.263H291.3l-1.295-1.408c-.9-1.013-2.365-2.534-3.519-4.11a19.244,19.244,0,0,1-1.774-2.393,29.456,29.456,0,0,1,2.505,1.661c1.576,1.295,3.153,2.674,4.138,3.519l1.436,1.323V87.453l-1.436,1.267c-.985.816-2.562,2.252-4.138,3.491q-1.351,1.013-2.449,1.689a16.552,16.552,0,0,1,1.717-2.365c1.267-1.633,2.674-3.181,3.6-4.166l1.267-1.407H266.389l1.267,1.407c.9.985,2.336,2.534,3.6,4.166A23.012,23.012,0,0,1,273,93.9a21.622,21.622,0,0,1-2.477-1.689c-1.633-1.295-3.125-2.674-4.138-3.547l-1.464-1.21v24.435l1.464-1.239c1.013-.845,2.506-2.224,4.138-3.519A25.386,25.386,0,0,1,273,105.47a23.012,23.012,0,0,1-1.745,2.365c-1.3,1.6-2.759,3.181-3.6,4.138l-1.267,1.408h3.491a11.289,11.289,0,0,0,.816,15.4l-.7-.113.282,5.349-2.928.422-.647-3.885-.507-.169c-3.829-1.182-6.925-.676-9.459,1.126-22.576,4.729-37.412,15.849-27.5,41.972a166.884,166.884,0,0,0,11.429,24.969l-.028,5.658c-.873-.169-1.942-.282-2.646-.45-14.948-3.322-39.608-12.5-44.055-27.081-3.744-11.767,5.1-28.516,8.53-35.807,5.94-12.246,15.4-32.232,5.039-45.238-3.969-4.954-11.007-6.559-17.115-9.6-8.361-4.222-13.146-8.333-22.943-13.681-8.136-4.392-21.76,1.1-35.892,23.28a56.4,56.4,0,0,1-11.711,12.808c-23.872,3.35-39.467,10.275-42.423,24.632-5.63,27.672,21.225,26.687,19.874,43.69-.873,10.021-11.429,3.491-16.721,2.337-9.092-2.027-18.27,3.378-18.467,15.286-.028,5.264,3.153,16.806,14.807,23.309-4.617-8.417-3.885-19.17,4-16.862,17.313,5.18,27.221,6.306,38.4-8.839.254,7.967-7.46,14.779-10.19,21.62-7.094,17.256,4.391,35.16,26.518,34.963-9.712-9.121-8.417-20.409-8.136-20.409,3.181-15.286,13.315-19.227,16.327-32.2,6.7-28.854-20.325-33.049-14.666-60.129.676-3.547,2.083-10.894,3.688-14.244,17.622-2.674,26.968-9.149,39.073-15.089,13.006,23.872-23.393,54.527-.338,78.286,12.865,13.259,37.412,21.282,62.916,23.252.816.084,1.971.141,2.871.225a6.253,6.253,0,0,0-3.716,6.193c-6.587-1.8-11.711,1.717-11.457,8.867-25.448,0-48.588,15.426-43.324,44.9,2.083,11.345,6.531,16.215,13.09,21.676,11.176-17.144,43.183-18.439,63.423-7.094-11.232-.7-27.588,2.252-37.271,6.362-11.767,4.926-26.771,11.457-42.451,9.627-10.022-1.21-16.1-7.854-17.96-15.258-5.011,4.757-.844,25.392,17.144,33.7,9.4,4.363,25.589,5.968,36.765-1.548,4.138-2.815,20.606-20.606,41.072-20.916-29.5,8.164-37.778,28.77-14.948,41.719-.225-7.657-1.492-17.341,13.456-26.349a43.124,43.124,0,0,1,33.949-4.138c4.138,1.323,10.613,4.87,14.667,5.63,6.277,1.154,9.261-2.59,10.753-4.757,13.287,9.965,32.739,39.748,36.68,58.5,4.363,21.479,1.407,35.723-9.8,48.165-3.463,3.828-21.2,17.96-38.454,3.265-2.505,21.7,16.243,34.428,37.581,27.306-4.11,4.5-11.486,9.712-21.226,13.625-15.426,6.193-30.571.535-37.609-11.992-16.609,18.607-8.445,50.783,18.016,53.739-12.1,23.168-53.824,24.153-72.572-2.731-11.711-16.721,1.914-29.276,8.839-35.779,17.481-16.468,17-32.739,4.785-50.5-16.1-23.393-65.759-61.762-84.845-90.025-3.6,4.532-4.983,9.543-5.94,11.345-17.847-13.034-37.975-40.987-44.9-62.213-3.547.873-6.193,4.307-8.783,6.728C64.015,242,13.513,158.956-.7,126.5c-30.262,14.413-29.361,56.414-20.493,80.707C-13,229.529.761,252.922,29.615,285.8c-9.065-6.278-65.731-63.395-78.089-70.461-21.2,29.53-6.953,80.933,33.3,102.946-12.949-5.264-42.451-16.13-58.553-12.358-3.181,32.739,23.928,55.034,41.071,67.42-16.186-3.744-34.766-6.278-53.176-1.1,1.633,22.38,25.11,47.715,58.891,58.891-21.141-1.407-42.873.591-56.442,8.98,3.068,22.971,29.164,43.267,62.072,47.968-21.845,2.28-41.381,11.88-51.037,24.547,11.542,14.976,29.136,26.968,55.738,26.405A57.371,57.371,0,0,0-36.426,551.2a2.338,2.338,0,0,0-2.731-1.042,2.433,2.433,0,0,0-1.3,3.125c.169.2.254.422.451.619a8.868,8.868,0,0,0-4.194,5.94,50.037,50.037,0,0,0-6.5,11.514c.647.479,1.351.929,2.027,1.408a9.845,9.845,0,0,0,1.689,6.559,9.242,9.242,0,0,0-2.421,5.011l-15.708-6.615c-.619,2.618-1.717,21.479,9.177,32.683,5.883,6.024,11.767,5.123,10.19,7.009l16.721,10.556c3.294,6.306,9.346,5.912,13.625,4.11a10.64,10.64,0,0,0-.056,1.323A14.417,14.417,0,0,0-4.559,647.366c-1.379,5.574.7,9.346,8.135,11.514L67.337,810.216c-2.843,6.925-.169,13.259,5.686,15.792-1.717,1.914-2.787,3.266-2.7,6.953,2.477-1.407,6.024-1.942,7.854,2.871,1.351,3.631-5.377,14.863,4.588,23-.929,6.981,2.421,14.132,9.909,16.834.338,3.744,3.209,15.511,4,19.931-4.589,5.855-15.117,15.6-13.653,26.067.985,7.038,4.11,9.74,10.275,11.682-2.674,13.371,5.1,19.649,17.059,20.043-.563,10.162,9.346,13.287,15.426,13.935a50.425,50.425,0,0,0,14.554,9.121c-5.912,7.432-1.492,16.524,9.233,19.677,1.211,4.279,4.9,8.107,10.951,9.065a11.045,11.045,0,0,0,13.934,4.589c2.787-1.464,6.784-8.164,3.125-14.385,2.421-2.843,1.21-8.22-.535-12.02,4.082-6.841.7-14.92-4.11-17.256.563-3.66-1.351-9.121-2.421-12.949,8.276-5.011,19.649-11.851,23.477-14.5,21.929-15.37,45.632-28.291,73.979-30.684a204.7,204.7,0,0,1,27-.281c11.767.957,26.715,4.307,36.37-2.731,2.562-1.83,4.335-4.532,3.829-7.77-1.126-6.869-8.952-12.808-11.345-19-.76-1.914-2-4.757-3.209-7.432,7.854,1.492,15.483.591,20.015-1.267,5.151-2.139,16.5-10.838,16.412-23.28-9.571,4.335-32.289,10.472-35.16-12.583-2.505-20.184,15.82-36.933,43.267-29.98,19.733,4.983,47.518,45.6,22.042,62.607-12.78,8.558-31.7,16.609-29.389,38.51,8.192-10.078,19.4-14.779,33.949-13.54-21.169,15.314-37.665,16.834-58.975,28.826-19.283,10.81-33.809,29.079-48.447,29.727-11.823.45-18.157-13.146-7.347-23.309-11.26-2.083-26.039,5.968-30.262,17.65-5.658,15.821-.929,27.616,8.952,33.724-13.6,7.15-23.871,21.451-18.748,41.775,4.082,16.074,21.31,16.215,14.751,36.905,9.177-2.646,15.567-8.67,17.988-17.65,1.464-5.855,2.252-13.034,5.715-16.046-1.042,12.865,5.968,31.472,23.646,39.664,11.8,5.433,30.346,8.051,44.928-6.756,5.461,16.778,25.561,30.994,45.745,30.543,9.374-.281,18.495-3.969,25.335-8.079,4.983,11.964,17.341,24.069,30.177,30.487,12.865-6.418,25.251-18.523,30.29-30.487,6.756,4.11,15.82,7.8,25.307,8.079,20.184.45,40.255-13.766,45.688-30.543,14.61,14.807,33.133,12.189,44.9,6.756,17.763-8.192,24.716-26.8,23.731-39.664,3.35,3.012,4.195,10.19,5.715,16.046,2.393,8.98,8.811,15,17.988,17.65-6.615-20.691,10.641-20.831,14.694-36.905,5.152-20.325-5.1-34.625-18.748-41.775,9.909-6.109,14.61-17.9,9.008-33.724-4.251-11.682-19.086-19.734-30.262-17.65,10.782,10.162,4.476,23.759-7.347,23.309-14.666-.647-29.248-18.917-48.475-29.727-21.338-11.992-37.834-13.512-59-28.826,14.582-1.239,25.758,3.463,33.949,13.54,2.224-21.9-16.609-29.952-29.417-38.51-25.476-17,2.336-57.624,22.1-62.607,27.447-6.953,45.716,9.8,43.239,29.98-2.843,23.055-25.589,16.918-35.16,12.583-.084,12.443,11.288,21.141,16.384,23.28,5.546,2.308,15.849,3.631,25.476.028-.169,2.308-.31,4.279-.366,5.067-2.28,19.452-12.527,21.507-8.783,29.333,5.1,6.165,38.791,5.011,48.729,6.446,15.9,2.365,29.783,8.164,45.322,11.288,17.115,3.434,35.61,3.547,51.121,9.74,10.078,4.026,21.507,12.274,30.966,17.4,15,2.027,12.78,8.023,21.732,8.248,8.952.253,12.358-7.319,23.027-10.331,7.432-2.083,16.468,1.042,24.1-.9,5.546-1.52,7.713-7.178,12.555-10.106,6.109-3.688,13.934-3.941,19.79-8.135,21.394-7.6,45.688-25.87,52.022-69.194l.873-6.137H862.559l-.844,4.335a81.765,81.765,0,0,1-4.448,14.863V791.215A48.718,48.718,0,0,1,860,800.054l.9,4.223h33.555l-.676-5.94c-3.6-31.331-29.136-62.944-78.174-62.944-53.43,0-87.97,38.369-87.97,97.766,0,27.193,6.052,47.856,15.736,63.17-3.8,7.263-12.837,11.908-15.23,12.161-21.563,2.843-45.857-6.137-67.533-14.188-10.247-3.8-22.914-8.192-29.586-17.453-1.464-2.027-3.181-6.812-4.392-12.893a36.032,36.032,0,0,1,.76-4.138c2.618,3.575,6.249,6.559,11.964,9.177a30.774,30.774,0,0,1,1.97-8.333A27.323,27.323,0,0,0,666.1,872.119c-6.39-5.349-9.459-19.508-6.278-31.529,8.924,14.357,42.507,17.847,48.7-8.333-12.64,5.039-20.662-.873-23.112-7.741-3.491-10.022,8.98-35.892-2.449-55.4C674.2,754.141,664.1,745.3,640.452,741.839c1.914-2.956,2.505-5.32,3.294-9.627-21.732,8.023-40.706,2.308-49.066-15.258,4.363,2.111,10.81,2.928,16.5,2.787-19-15.652-18.016-58.75-4.222-81.467,1.661-.873,2.7-2.055,4.279-2.815,4.363,8.755,16.778,8.755,23.168,15.2,2.449-2.421,3.828-2.9,6.475-4.757,0,0,.45,35.329,2.815,49.657,2.759,16.665,18.664,14.666,27.024,22.014,9.825-9.937,27.306-9.824,24.772-27.644-2.618-18.861-6.334-35.3-7.066-47.124,5.743,10.754,16.074,52.275,20.691,64.549,6.559,17.65,23.928,12.527,33.724,18.776,6.615-12.3,22.464-15.624,16.187-33.724-1.745-4.954-28.094-60.157-31.754-70.235,9.261,13.174,34.146,61.312,42.648,74.683,8.755,13.935,24.772,7.6,36.4,11.26,2.224-10.669,17.876-21.957,6.7-39.58-14.807-23.337-47.771-64.239-50.136-69.616,7.178,5.8,58.947,69.363,63.141,73.079,11.908,10.359,29.783,2.618,39.945,2.365-.084-11.823,9.768-25.11-4.138-38.2-12.443-11.739-40.734-31.979-47.068-38.453,19.255,12.471,41.691,33.358,55.372,36.708,23.562,5.771,31.754-3.491,40.875-7.038-7.713-21.141,2.055-31.134-48.109-51.8,43.83,15.342,62.944,7.713,78.286-4.223-6.052-15.624-21.394-28.122-34.09-32.317,26.63.563,44.14-11.429,55.738-26.405-9.684-12.668-29.248-22.267-51.065-24.547C944.674,483.39,970.8,463.093,973.894,440.122ZM424.566,165.458h0c6.418.366,13.146.619,20.437.619,7.46,0,14.329-.281,20.831-.647l.028.028c15.623,15.37,50.474,34.766,84.7,41.747h-.028c-19.818,0-54.584-1.6-58.778-6.475.732,12.245,27.559,26.377,45.1,30.037-14.329,1.379-27.841-.113-38.96-5.292,6.081,8.614,13.118,15.68,24.716,19.339-12.217,14.723-37.018,24.1-61.875,21.732,5.94,7.46,16.918,11.879,27.137,10.613C467.721,308.294,449.423,342.665,445.2,389.9c-4.194-47.237-22.52-81.608-42.648-112.743,10.19,1.267,21.226-3.153,27.193-10.613-24.941,2.365-49.657-7.009-61.931-21.732,11.626-3.66,18.635-10.725,24.744-19.339-11.148,5.18-24.6,6.672-39.017,5.292,17.566-3.66,44.393-17.791,45.125-30.037-4.138,4.87-38.988,6.475-58.778,6.475h-.028C374.121,200.224,408.971,180.829,424.566,165.458Zm124.425,843.725c6.024-.732,14.5-3.1,19.03-9.064,7.6,12.668-2.956,21.817-18.241,21.873C550,1016.644,549.779,1015.1,548.991,1009.184Zm-79.553-43.239c-4.138-15.764-19.311-75.556-14.751-86.534,2.984,23.28,12.837,59.763,26.461,89.631,9.768,21.422,23.9,71.446-1.633,84.282C481.993,1035.392,477.01,993.757,469.438,965.945Zm-58.553,87.379c-25.5-12.837-11.373-62.86-1.577-84.282,13.625-29.868,23.478-66.351,26.433-89.631,4.589,10.979-10.528,70.77-14.807,86.534C413.447,993.757,408.436,1035.392,410.885,1053.324Zm-70.264-31.332c-15.258-.056-25.842-9.205-18.185-21.873,4.5,5.968,12.977,8.333,19.03,9.064A54.913,54.913,0,0,0,340.621,1021.992ZM246.176,884.956c-12.527,6.221-35.1,14.554-48.756,16.721-10.416,1.661-29.192-4.5-33.668-18.861-4.448-14.244-16.524-18.636-25.392-9.965-2.872-1.717-9.656-3.04-12.274,1.21,0,0-3.1-6.587-6.418-9.458,2.393-7.46.169-16.1-6.418-18.945-.844-14.16-9.543-14.413-12.555-19.424-1.8-2.928-1.492-6.334,2.815-7.375-1.914-2.421-5.574-2.928-6.7-2.928,1.633-6.024-.647-13.146-8.67-16.074l-61.4-125.269c10.331,1.07,26.6,7.094,37.722-2.59,4.194-3.716,56.019-67.28,63.169-73.079C125.27,604.3,92.278,645.2,77.471,668.535c-11.2,17.622,4.476,28.91,6.672,39.58,11.682-3.66,27.559,2.674,36.455-11.26,8.361-13.371,33.358-61.509,42.648-74.683-2.9,7.938-19.762,43.661-27.672,60.946.141-.76.225-1.408.422-2.252a56.838,56.838,0,0,0-3.8,9.825c-.225.535-.647,1.436-.732,1.717-6.306,18.1,9.6,21.422,16.186,33.724,9.8-6.249,27.081-1.126,33.724-18.776,4.588-12.274,15.032-53.8,20.691-64.549-.76,11.823-4.448,28.263-7.122,47.124-2.533,17.819,14.976,17.707,24.8,27.644,8.445-7.347,24.294-5.349,27.109-22.014,2.308-14.329,2.759-49.657,2.759-49.657,2.7,1.858,4.025,2.336,6.447,4.757,6.362-6.446,18.748-6.446,23.2-15.2,1.52.76,2.562,1.942,4.279,2.815,13.794,22.717,14.723,65.816-4.279,81.467,5.715.141,12.161-.676,16.5-2.787-8.276,17.566-27.334,23.28-49.038,15.258.788,4.307,1.379,6.672,3.294,9.627-23.7,3.462-33.752,12.3-42.507,27.278-11.4,19.508,1.042,45.378-2.449,55.4-2.337,6.869-10.415,12.78-23.027,7.741,6.137,26.18,39.664,22.689,48.588,8.333,3.209,12.02.2,26.18-6.193,31.529a27.275,27.275,0,0,0,24.744-11.457,33.025,33.025,0,0,1,1.97,8.333c5.658-2.618,9.318-5.6,11.936-9.177a36.6,36.6,0,0,1,.169,15.849C258.563,878.509,253.665,881.184,246.176,884.956Zm296,72.685c4.307,7.741,6.9,23.59-5.883,25.223-7.235-19.2-16.3-30.262-27.7-45.266-7.46-9.853-22.718-26.743-29.192-37.412C497.588,921.129,533.48,941.9,542.179,957.64Zm-193.9,0c8.642-15.736,44.647-36.511,62.747-57.455-6.446,10.669-21.648,27.559-29.192,37.412-11.4,15-20.409,26.067-27.672,45.266C341.382,981.23,343.887,965.382,348.278,957.64ZM27.645,575.582c-3.969,1.633-6.953,3.1-10.19,4.589,0-.479.141-1.013.113-1.492C20.832,577.722,24.041,576.849,27.645,575.582Zm-32.4,7.826a3.171,3.171,0,0,1-.338,1.295,11.523,11.523,0,0,1-2-.141c-.225-.281-.422-.591-.648-.873C-6.755,583.633-5.77,583.549-4.756,583.408Zm-29.08,5.1-2.28.957c.647,2.477,1.1,4.814,1.492,7.15-.394.535-.844,1.013-1.267,1.576-3.969-.76-3.716-4.926-3.1-8.417a6.458,6.458,0,0,0,4.195-2C-34.512,587.743-33.836,588.5-33.836,588.5Zm12.189,28.291a6.391,6.391,0,0,1-1.069,4.814l-6.221-3.547C-26.883,615.7-24.1,615.781-21.647,616.795Zm35.132,18.439a48.532,48.532,0,0,0,6.813-.816c13.681-3.35,36.145-24.238,55.4-36.708-6.306,6.475-34.653,26.715-47.067,38.453-11.851,11.148-6.446,22.408-4.645,32.823L16.5,653.7c3.856-5.18,1.689-11.908-3.181-13.822-.141-.535-.253-1.1-.366-1.689A14.075,14.075,0,0,0,13.485,635.233ZM774.054,879.945v.422c-7.263-11.288-11.035-27.053-11.035-47.94,0-17.51,4.026-31.895,11.035-42.789v90.307Zm58.581,17.847a10.883,10.883,0,0,0-6.869-3.1,21.269,21.269,0,0,1,1.97,4.786,46.043,46.043,0,0,1-11.4,1.436,69.926,69.926,0,0,1-11.964-1.013c-2-4.9-5.6-9.177-12.78-8.98,1.745,1.492,2.421,3.913,2.759,6.193a41.18,41.18,0,0,1-16.778-11.823h25.9V844.9h24.378v40.4H849.3A40.086,40.086,0,0,1,832.635,897.792Zm19.283-113.165H827.849v34.09H803.471v-34.09h-26.1c9.093-11.091,22.126-17.256,38.228-17.256,13.146,0,28.882,3.434,38.059,17.256Z" transform="translate(0 20.091)" fill="#f9f9f9"/>
    <path id="Path_3492" data-name="Path 3492" d="M-23.45,83.341c10.162,0,43.8-3.237,49.854-44.872l.563-3.688H6.587L6.08,37.4a49.729,49.729,0,0,1-2.674,8.952V-.6C3.912.776,4.7,1.7,5.066,3.337L5.6,5.9H25.813l-.422-3.6C23.251-16.565,7.853-35.623-21.677-35.623c-32.2,0-53.007,23.14-53.007,58.891C-74.684,67.577-48.223,83.341-23.45,83.341ZM-46.731-2.18V51.081C-50.953,44.3-53.374,35.2-53.374,22.846-53.374,12.543-50.756,4.323-46.731-2.18Zm25.476,66.266c-10.247,0-17.791-3.265-23.112-9.4H-29V30.334h14.666v24.35H-1.38A24.942,24.942,0,0,1-21.254,64.086ZM-11.092-2.743Zm-21.141,0h0ZM.168-5.952h-14.5V14.569H-29V-5.952h-15.68c5.461-6.672,13.287-10.416,23-10.416,7.882,0,17.284,2.139,22.83,10.416Z" transform="translate(302.619 2.443)" fill="#f9f9f9"/>
    <path id="Path_3493" data-name="Path 3493" d="M-11.647,83.251c10.162,0,43.8-3.237,49.854-44.872l.535-3.688H18.39l-.507,2.618a49.759,49.759,0,0,1-2.674,8.952V-.694C15.715.657,16.5,1.614,16.841,3.247L17.4,5.781H37.616l-.422-3.575C35.026-16.655,19.656-35.713-9.9-35.713c-32.176,0-52.979,23.112-52.979,58.891C-62.881,67.487-36.42,83.251-11.647,83.251ZM-34.927-2.27V50.99c-4.222-6.784-6.643-15.877-6.643-28.235C-41.571,12.453-38.953,4.233-34.927-2.27ZM-9.451,64c-10.247,0-17.791-3.265-23.112-9.4h15.37V30.244H-2.526v24.35H10.423A24.942,24.942,0,0,1-9.451,64ZM11.971-6.042h-14.5V14.479H-17.193V-6.042h-15.68C-27.411-12.714-19.585-16.458-9.9-16.458c7.91,0,17.313,2.139,22.858,10.416Z" transform="translate(623.076 0)" fill="#f9f9f9"/>
  </g>
</svg>
