<svg id="twitter" xmlns="http://www.w3.org/2000/svg" width="17.388" height="14.127" viewBox="0 0 17.388 14.127">
  <path id="twitter_icon" data-name="twitter icon" d="M11.618,0V0h.815l.3.06a3.186,3.186,0,0,1,.541.152,3.848,3.848,0,0,1,.47.22,4.473,4.473,0,0,1,.412.255,2.538,2.538,0,0,1,.329.273.457.457,0,0,0,.45.075,6.019,6.019,0,0,0,.658-.2q.353-.125.7-.282t.42-.2L16.788.31l0,0L16.807.3l.016-.008L16.84.281l.016-.008,0,0,0,0,0,0,0,0,.016,0,.016,0,0,.024L16.9.3l-.008.024L16.88.344l-.008.016-.008.016L16.856.4a.545.545,0,0,0-.016.063,2.631,2.631,0,0,1-.149.314,3.922,3.922,0,0,1-.353.557,2.736,2.736,0,0,1-.381.426q-.169.145-.224.2a.673.673,0,0,1-.133.11l-.078.052-.016.008-.016.008,0,0,0,0,0,0,0,0-.016.008-.016.008,0,0,0,0,0,0,0,0,0,0,0,0,0,0,0,0h.079l.439-.094a7.856,7.856,0,0,0,.838-.227l.423-.141.047-.016.024-.008.016-.008.016-.008.016-.008.016-.008.031,0,.031,0v.032l-.008,0-.008,0,0,0,0,0,0,0,0,0,0,0,0,0,0,0,0,0,0,0,0,0-.008.016-.008.016,0,0-.2.267a2.2,2.2,0,0,1-.212.267q-.016,0-.044.047a4.493,4.493,0,0,1-.332.35,7.89,7.89,0,0,1-.6.544.742.742,0,0,0-.3.589q0,.348-.036.787t-.118.949a11.309,11.309,0,0,1-.267,1.152A10.477,10.477,0,0,1,14.77,8a9.772,9.772,0,0,1-.541,1.1q-.282.486-.517.823t-.479.635q-.243.3-.615.671t-.408.408q-.036.034-.307.258t-.58.448a6.71,6.71,0,0,1-.568.372q-.258.149-.624.34a7.424,7.424,0,0,1-.787.358q-.423.165-.894.306a8.163,8.163,0,0,1-.909.22q-.439.078-1,.133l-.557.055v.008H4.97v-.008l-.133-.008Q4.7,14.1,4.617,14.1t-.651-.086q-.564-.078-.887-.157t-.955-.3a9.306,9.306,0,0,1-1.087-.444q-.45-.223-.564-.282T.22,12.684L.079,12.6l0,0,0,0,0,0,0,0-.016-.008-.016-.008,0,0,0,0,0,0,0,0,0,0,0,0H0v-.031l.016,0,.016,0,.071.008q.071.008.384.024t.666,0a7.011,7.011,0,0,0,.721-.071,8.124,8.124,0,0,0,.87-.188,6.429,6.429,0,0,0,.922-.317q.419-.185.6-.276a5.8,5.8,0,0,0,.536-.332l.358-.243,0,0,0,0,0,0,0,0,0,0,0,0,0,0,0,0,.016,0,.016,0,0-.016,0-.016,0,0,0,0-.125-.008-.243-.016A2.357,2.357,0,0,1,4.5,10.95a3.536,3.536,0,0,1-.541-.188,4.17,4.17,0,0,1-.564-.3,2.778,2.778,0,0,1-.4-.287q-.121-.113-.314-.32a3.172,3.172,0,0,1-.332-.428,3.846,3.846,0,0,1-.27-.506l-.13-.284-.008-.024-.008-.024,0-.016,0-.016.024,0,.024,0,.172.024a3.832,3.832,0,0,0,.541.016,4.188,4.188,0,0,0,.51-.031q.141-.024.172-.031L3.4,8.537l.039-.008.039-.008,0,0,0,0,0,0,0,0L3.465,8.5,3.434,8.49,3.4,8.482l-.031-.008L3.34,8.466l-.11-.031q-.078-.024-.423-.172a3.237,3.237,0,0,1-.548-.29,3.79,3.79,0,0,1-.389-.309,4.437,4.437,0,0,1-.4-.435,3.136,3.136,0,0,1-.393-.619,3.766,3.766,0,0,1-.258-.674A3.64,3.64,0,0,1,.7,5.284L.675,4.954l.016,0,.016,0,.016.008.016.008.016.008.016.008.243.11a3.066,3.066,0,0,0,.6.188q.361.078.431.086l.071.008h.141l0,0,0,0,0,0,0,0,0,0,0,0,0,0,0,0-.016-.008L2.2,5.339l0,0,0,0,0,0,0,0-.016-.008L2.15,5.308l0,0-.135-.1a2.056,2.056,0,0,1-.272-.256Q1.6,4.79,1.459,4.617a2.542,2.542,0,0,1-.251-.368,4.466,4.466,0,0,1-.232-.5,3.539,3.539,0,0,1-.183-.607,3.454,3.454,0,0,1-.071-.6,3.8,3.8,0,0,1,.016-.51,3.33,3.33,0,0,1,.094-.478,3.726,3.726,0,0,1,.2-.564l.133-.3L1.177.666,1.185.643l0,0,0,0,0,0,0,0,0,0,0,0,0,0,0,0,0,0,0,0,0,0,0,0,.008.016.008.016,0,0,0,0,.211.235q.212.235.5.525a2.948,2.948,0,0,0,.321.3.23.23,0,0,1,.078.072,3.2,3.2,0,0,0,.314.278q.267.22.7.51t.956.572A9.332,9.332,0,0,0,5.463,3.7q.6.227.847.3t.831.18q.588.11.887.141t.408.036l.11,0,0-.024,0-.024-.031-.2a3.684,3.684,0,0,1-.031-.548,3.6,3.6,0,0,1,.055-.651,3.854,3.854,0,0,1,.165-.6,3.224,3.224,0,0,1,.215-.492A4.827,4.827,0,0,1,9.187,1.4,3.381,3.381,0,0,1,9.634.917,3.3,3.3,0,0,1,10.261.47a4.077,4.077,0,0,1,.651-.3,3.032,3.032,0,0,1,.5-.133,1.744,1.744,0,0,0,.2-.036Z" transform="translate(0 0)" fill="#c8c8c8"/>
</svg>
