<svg xmlns="http://www.w3.org/2000/svg" width="21.496" height="12.224" viewBox="0 0 21.496 12.224">
  <g id="vk" transform="translate(0 0)">
    <path id="Path_56" data-name="Path 56" d="M341.2-616.936h-1.568a1.119,1.119,0,0,1-.473-.118c-.069-.035-.148-.049-.217-.084a3.365,3.365,0,0,1-1.006-.779c-.311-.34-.611-.69-.922-1.025-.192-.207-.4-.4-.611-.592a1.1,1.1,0,0,0-.493-.256.457.457,0,0,0-.35.069,1.146,1.146,0,0,0-.468.631,4.1,4.1,0,0,0-.217,1.375.819.819,0,0,1-.148.478.887.887,0,0,1-.212.168.772.772,0,0,1-.182.084.662.662,0,0,1-.212.049c-.572,0-1.149,0-1.72-.015a4.027,4.027,0,0,1-.626-.1c-.177-.035-.355-.069-.532-.113-.143-.035-.286-.084-.424-.128a2.889,2.889,0,0,1-.291-.1c-.138-.054-.271-.108-.4-.168-.173-.079-.35-.158-.518-.251-.251-.143-.5-.3-.749-.454a6.225,6.225,0,0,1-1.03-.838,9.517,9.517,0,0,1-.685-.725c-.33-.4-.641-.813-.951-1.223-.138-.182-.271-.365-.394-.557-.227-.34-.444-.685-.661-1.03q-.214-.333-.414-.68c-.168-.291-.33-.592-.493-.887-.118-.212-.237-.419-.35-.631s-.232-.454-.35-.685-.232-.449-.34-.675c-.089-.182-.173-.365-.256-.552-.163-.355-.335-.71-.493-1.065a1.623,1.623,0,0,1-.1-.375.382.382,0,0,1,.311-.389,2.557,2.557,0,0,1,.749-.064c.872,0,1.745,0,2.618,0a.846.846,0,0,1,.725.37,1.82,1.82,0,0,1,.173.355c.1.222.192.449.291.675.074.168.153.34.237.508.118.242.246.483.37.725a4.02,4.02,0,0,0,.222.4c.217.36.434.725.67,1.075.192.291.4.567.616.843a1.787,1.787,0,0,0,.518.463.455.455,0,0,0,.685-.168,2.243,2.243,0,0,0,.232-.853,12.741,12.741,0,0,0,.049-2.125,4.074,4.074,0,0,0-.138-1.065,1.061,1.061,0,0,0-.592-.72,1.525,1.525,0,0,0-.483-.148c-.089-.01-.1-.049-.074-.133a.75.75,0,0,1,.32-.345,1.839,1.839,0,0,1,.656-.256,7.467,7.467,0,0,1,1.518-.128c.35,0,.7,0,1.055.01a7.306,7.306,0,0,1,.8.084,2.778,2.778,0,0,1,.483.123.721.721,0,0,1,.468.478,2.119,2.119,0,0,1,.1.784c-.01.656-.03,1.311-.044,1.967-.01.419-.025.833-.02,1.252a3.57,3.57,0,0,0,.054.611.979.979,0,0,0,.355.636.419.419,0,0,0,.424,0,2.315,2.315,0,0,0,.527-.454c.187-.227.38-.453.557-.69.123-.163.227-.335.335-.508.153-.237.306-.478.453-.72.113-.192.212-.389.315-.587.123-.242.242-.483.36-.725.089-.192.173-.389.256-.587.1-.251.2-.513.315-.759a.732.732,0,0,1,.222-.281.553.553,0,0,1,.3-.094c.325-.01.656,0,.981,0,.813,0,1.627,0,2.44,0a2.471,2.471,0,0,1,.69.074.47.47,0,0,1,.38.631,1.89,1.89,0,0,1-.128.4c-.089.207-.182.409-.286.606s-.222.389-.34.577-.232.35-.355.523q-.333.466-.665.917c-.148.2-.3.389-.449.587-.286.385-.572.769-.858,1.149a2.464,2.464,0,0,0-.35.591.77.77,0,0,0-.02.626,1.45,1.45,0,0,0,.311.458c.291.276.582.552.868.828.2.2.4.394.6.592.217.222.444.444.646.68a6.277,6.277,0,0,1,.907,1.272,1.033,1.033,0,0,1,.138.483.633.633,0,0,1-.444.552c-.089.025-.173.064-.261.084a2.063,2.063,0,0,1-.385.054c-.523.01-1.03,0-1.538,0Z" transform="translate(-322.332 629.16)" fill="#c8c8c8"/>
  </g>
</svg>
