<svg id="youtube" xmlns="http://www.w3.org/2000/svg" width="18.353" height="12.89" viewBox="0 0 18.353 12.89">
  <path id="youtube_icon" data-name="youtube icon" d="M12.969,26.308a37.287,37.287,0,0,1-5.423-.273A2.384,2.384,0,0,1,6.3,25.387a2.619,2.619,0,0,1-.59-1.137,7.433,7.433,0,0,1-.252-1.668,39.632,39.632,0,0,1,0-5.409c.112-1,.167-2.185.913-2.877A2.448,2.448,0,0,1,7.6,13.678a67.52,67.52,0,0,1,6.955-.244,67.644,67.644,0,0,1,6.955.244,2.393,2.393,0,0,1,1.431.849,7.124,7.124,0,0,1,.762,3.445c.029.5.029,3.315,0,3.812a8.711,8.711,0,0,1-.439,2.833,2.089,2.089,0,0,1-.5.806,2.413,2.413,0,0,1-1.28.654c-3.025.227-5.593.277-8.508.23ZM17.6,19.691c-1.683-.9-3.294-1.733-4.941-2.6v5.164c1.733-.942,3.56-1.805,4.948-2.575Z" transform="translate(-5.368 -13.434)" fill="#c8c8c8"/>
</svg>
